<?xml version="1.0" encoding="UTF-8"?>
<svg id="Laag_1" data-name="Laag 1" xmlns="http://www.w3.org/2000/svg" viewBox="0 0 134 40">
  <defs>
    <style>
      .cls-1 {
        fill: #aef359;
      }
    </style>
  </defs>
  <rect class="cls-1" x="0" y="0" width="134" height="40" rx="8" ry="8"/>
  <path d="M41.4,25v-10.91h2.31v9.01h4.68v1.9h-6.98ZM53.56,25.16c-.83,0-1.54-.18-2.15-.53-.6-.36-1.06-.85-1.39-1.48-.33-.64-.49-1.37-.49-2.21s.16-1.58.49-2.22c.33-.64.79-1.13,1.39-1.48.6-.36,1.32-.53,2.15-.53s1.54.18,2.14.53c.6.35,1.07.85,1.4,1.48.33.63.49,1.37.49,2.22s-.16,1.57-.49,2.21c-.33.63-.79,1.13-1.4,1.48-.6.35-1.31.53-2.14.53ZM53.58,23.4c.38,0,.69-.11.94-.32.25-.22.44-.51.57-.88.13-.37.2-.8.2-1.27s-.07-.9-.2-1.27c-.13-.37-.32-.67-.57-.88-.25-.22-.57-.32-.94-.32s-.7.11-.96.32c-.26.22-.45.51-.58.88-.13.37-.19.8-.19,1.27s.06.9.19,1.27c.13.37.32.67.58.88.26.21.58.32.96.32ZM62.76,25.16c-.84,0-1.56-.18-2.16-.53-.6-.36-1.06-.86-1.38-1.49-.32-.64-.48-1.37-.48-2.19s.16-1.57.48-2.21c.33-.64.79-1.13,1.39-1.49.6-.36,1.31-.54,2.14-.54.71,0,1.34.13,1.87.39.54.26.96.62,1.27,1.09.31.47.48,1.02.52,1.65h-2.14c-.06-.41-.22-.74-.48-.99-.26-.25-.59-.38-1.01-.38-.35,0-.66.1-.92.29-.26.19-.46.46-.61.83-.15.36-.22.8-.22,1.32s.07.97.21,1.33c.15.37.35.64.61.84.26.19.57.29.92.29.26,0,.49-.05.7-.16.21-.11.38-.26.52-.46.14-.21.23-.45.27-.74h2.14c-.04.62-.21,1.18-.51,1.65-.3.47-.72.84-1.25,1.11-.53.27-1.16.4-1.89.4ZM70.2,25.15c-.52,0-.99-.09-1.4-.27-.41-.18-.73-.46-.97-.81-.23-.36-.35-.81-.35-1.35,0-.45.08-.84.25-1.15.17-.31.39-.56.68-.75.29-.19.61-.33.98-.43.37-.1.76-.16,1.16-.2.48-.05.86-.1,1.15-.14.29-.05.5-.11.63-.2.13-.09.2-.22.2-.39v-.03c0-.34-.11-.6-.32-.78-.21-.18-.51-.28-.89-.28-.41,0-.73.09-.97.27-.24.18-.4.4-.48.67l-2.1-.17c.11-.5.32-.93.63-1.29.31-.37.72-.65,1.21-.84.5-.2,1.07-.3,1.73-.3.45,0,.89.05,1.31.16.42.11.79.27,1.11.5.33.22.58.51.77.86.19.35.28.77.28,1.25v5.52h-2.15v-1.13h-.06c-.13.26-.31.48-.53.68-.22.19-.48.34-.79.45-.31.11-.67.16-1.07.16ZM70.85,23.59c.33,0,.63-.07.88-.2.26-.13.46-.32.6-.54.15-.23.22-.48.22-.77v-.87c-.07.05-.17.09-.29.13-.12.04-.26.07-.41.1-.15.03-.31.06-.46.08-.15.02-.29.04-.42.06-.27.04-.5.1-.7.19-.2.09-.35.2-.46.35-.11.14-.17.32-.17.53,0,.31.11.55.34.71.23.16.51.24.86.24ZM80.92,16.82v1.7h-4.93v-1.7h4.93ZM77.12,14.86h2.27v7.63c0,.21.03.37.1.49.06.11.15.19.27.24.12.05.25.07.4.07.11,0,.21,0,.32-.03.11-.02.19-.04.25-.05l.36,1.69c-.11.04-.27.08-.48.12-.21.05-.46.08-.75.09-.55.02-1.03-.05-1.44-.22-.41-.17-.73-.43-.95-.78-.23-.35-.34-.8-.34-1.33v-7.93ZM82.4,25v-8.18h2.27v8.18h-2.27ZM83.54,15.76c-.34,0-.63-.11-.87-.34-.24-.23-.36-.5-.36-.82s.12-.58.36-.8c.24-.23.53-.34.87-.34s.62.11.86.34c.24.22.36.49.36.8s-.12.59-.36.82c-.24.22-.53.34-.86.34ZM90.22,25.16c-.84,0-1.57-.17-2.17-.51-.6-.34-1.07-.83-1.4-1.46-.33-.63-.49-1.38-.49-2.24s.16-1.58.49-2.22c.33-.64.79-1.13,1.38-1.49.6-.36,1.3-.53,2.1-.53.54,0,1.04.09,1.51.26.47.17.88.43,1.23.77.35.34.62.78.82,1.3.2.52.29,1.13.29,1.82v.62h-6.91v-1.41h4.77c0-.33-.07-.62-.21-.87-.14-.25-.34-.45-.59-.59-.25-.15-.54-.22-.87-.22s-.65.08-.92.24c-.26.16-.47.37-.62.63-.15.26-.23.56-.23.88v1.34c0,.4.07.75.22,1.05.15.29.37.52.64.68s.61.24.99.24c.25,0,.48-.04.69-.11.21-.07.39-.18.54-.32.15-.14.26-.32.34-.52l2.1.14c-.11.5-.32.94-.66,1.32-.33.37-.75.66-1.27.87-.51.21-1.11.31-1.78.31Z"/>
</svg>