<?xml version="1.0" encoding="UTF-8"?>
<svg id="Layer_1" data-name="Layer 1" xmlns="http://www.w3.org/2000/svg" viewBox="0 0 152 77.56">
  <defs>
    <style>
      .cls-1 {
        stroke-width: 0px;
      }

      .cls-2 {
        fill: none;
        stroke: #aef359;
        stroke-miterlimit: 10;
        stroke-width: 3px;
      }

      .cls-3 {
        opacity: .99;
      }
    </style>
  </defs>
  <g>
    <path class="cls-1" d="M55.16,10.92v36.3h-9.4V10.92h-13.1V3.22h35.6v7.7s-13.1,0-13.1,0Z"/>
    <path class="cls-1" d="M118.86,47.22h-8.4l-21.1-28.8v28.8h-9.1V3.22h8.4l21.1,29V3.22h9.1v44h0Z"/>
  </g>
  <g class="cls-3">
    <path class="cls-1" d="M28.11,72.63h-2.7v-6.9h-8v6.9h-2.7v-15.4h2.7v6.2h8v-6.2h2.7v15.4Z"/>
    <path class="cls-1" d="M42.61,72.63h-2.5v-1.3c-1.1,1.1-2.4,1.6-3.6,1.6-2.8,0-4.8-2.6-4.8-5.8s2-5.8,4.8-5.8c1.2,0,2.5.5,3.6,1.6v-1.3h2.5v11h0ZM40.11,69.23v-4.2c-1-1-2.3-1.5-3.2-1.5-1.6,0-2.6,1.4-2.6,3.6s1,3.6,2.6,3.6c1,0,2.2-.5,3.2-1.5h0Z"/>
    <path class="cls-1" d="M56.61,72.63h-2.5v-1.3c-1.1,1.1-2.4,1.6-3.6,1.6-2.8,0-4.8-2.6-4.8-5.8s2-5.8,4.8-5.8c1.2,0,2.5.5,3.6,1.6v-1.3h2.5v11h0ZM54.11,69.23v-4.2c-1-1-2.3-1.5-3.2-1.5-1.6,0-2.6,1.4-2.6,3.6s1,3.6,2.6,3.6c1,0,2.3-.5,3.2-1.5h0Z"/>
    <path class="cls-1" d="M67.21,61.33l-.4,2.4h-.3c-1.2,0-2.6.5-3.8,1.5v7.4h-2.5v-11h2.5v1.5c1.3-1.2,2.9-1.8,4.3-1.8,0,0,.1,0,.2,0h0Z"/>
    <path class="cls-1" d="M77.51,62.73l-1,1.6c-.7-.7-1.9-1.1-3.1-1.1s-2,.4-2,1.3c0,.7.4.9,2.3,1.4,1.8.5,4.2,1,4.2,3.5s-2.6,3.5-4.8,3.5c-1.8,0-3.6-.6-4.5-1.7l1-1.6c.7.9,2.1,1.4,3.4,1.4,1.4,0,2.4-.5,2.4-1.4s-1-1.1-2.5-1.5c-2.8-.7-4.1-1.4-4.1-3.3,0-2.5,2.2-3.4,4.4-3.4,1.6-.1,3.3.3,4.3,1.3h0Z"/>
    <path class="cls-1" d="M88.11,72.23c-.8.5-1.8.8-2.8.8-1.8,0-3.3-.9-3.3-3.4v-5.9h-2.2v-1.6l2.1-.4h.1v-3.1h2.5v3.1h3.1v2h-3.1v5.8c0,1.1.7,1.5,1.5,1.4.5,0,1.1-.1,1.6-.3-.1-.1.5,1.6.5,1.6Z"/>
    <path class="cls-1" d="M101.21,72.63h-2.5v-1.3c-1.1,1.1-2.6,1.7-3.8,1.7-2.1,0-3.8-1.3-3.8-4.1v-7.2h2.5v7c0,1.4.7,2.1,1.9,2.1,1.1,0,2.3-.5,3.3-1.3v-7.8h2.5c-.1-.1-.1,10.9-.1,10.9Z"/>
    <path class="cls-1" d="M115.21,72.63h-2.5v-1.3c-1.1,1.1-2.4,1.6-3.7,1.6-2.8,0-4.8-2.6-4.8-5.8s1.9-5.8,4.8-5.8c1.2,0,2.5.5,3.6,1.6v-5.7h2.5v15.4h.1ZM112.71,69.23v-4.2c-1-1-2.2-1.5-3.3-1.5-1.6,0-2.6,1.5-2.6,3.6s.9,3.6,2.6,3.6c1,0,2.3-.5,3.3-1.5Z"/>
    <path class="cls-1" d="M121.61,58.63c0,.8-.7,1.4-1.5,1.4s-1.5-.7-1.5-1.4.7-1.5,1.5-1.5,1.5.7,1.5,1.5ZM118.91,72.63v-11h2.5v11h-2.5Z"/>
    <path class="cls-1" d="M135.91,67.13c0,3.2-2.2,5.8-5.6,5.8s-5.7-2.6-5.7-5.8,2.2-5.8,5.7-5.8,5.6,2.6,5.6,5.8ZM127.11,67.13c0,2.1,1.2,3.6,3.1,3.6s3.1-1.5,3.1-3.6-1.2-3.6-3.1-3.6-3.1,1.5-3.1,3.6Z"/>
    <path class="cls-1" d="M141.61,71.23c0,.8-.7,1.5-1.5,1.5s-1.5-.7-1.5-1.5.7-1.5,1.5-1.5,1.5.6,1.5,1.5Z"/>
  </g>
  <line class="cls-2" x1="147.86" y1="53.32" x2="3.66" y2="53.32"/>
</svg>