<?xml version="1.0" encoding="UTF-8"?>
<svg id="Laag_1" data-name="Laag 1" xmlns="http://www.w3.org/2000/svg" viewBox="0 0 47.18 47.18">
  <defs>
    <style>
      .cls-1 {
        fill: none;
        stroke: #111b21;
        stroke-linecap: round;
        stroke-linejoin: round;
        stroke-width: 2px;
      }

      .cls-2 {
        fill: #fff;
      }
    </style>
  </defs>
  <rect class="cls-2" x=".09" y=".09" width="47" height="47" rx="5" ry="5"/>
  <path class="cls-1" d="M26.4,29.7c.25.11.53.14.8.07.27-.07.5-.22.67-.44l.43-.56c.22-.3.52-.54.85-.71.33-.17.7-.25,1.08-.25h3.62c.64,0,1.25.25,1.7.71s.71,1.07.71,1.7v3.62c0,.64-.25,1.25-.71,1.7s-1.07.71-1.7.71c-5.75,0-11.27-2.29-15.34-6.35s-6.35-9.59-6.35-15.34c0-.64.25-1.25.71-1.7.45-.45,1.07-.71,1.7-.71h3.62c.64,0,1.25.25,1.7.71.45.45.71,1.07.71,1.7v3.62c0,.37-.09.74-.25,1.08-.17.33-.41.63-.71.85l-.56.42c-.22.17-.38.41-.44.68-.06.27-.03.56.09.81,1.65,3.35,4.36,6.05,7.7,7.69Z"/>
</svg>