<?xml version="1.0" encoding="UTF-8"?>
<svg id="Laag_1" data-name="Laag 1" xmlns="http://www.w3.org/2000/svg" viewBox="0 0 134 40">
  <defs>
    <style>
      .cls-1 {
        fill: #aef359;
      }
    </style>
  </defs>
  <rect class="cls-1" y="0" width="134" height="40" rx="8" ry="8"/>
  <path d="M35.83,15.99v-1.9h8.96v1.9h-3.34v9.01h-2.28v-9.01h-3.34ZM47.45,25.15c-.52,0-.99-.09-1.4-.27-.41-.18-.73-.46-.97-.81-.23-.36-.35-.81-.35-1.35,0-.45.08-.84.25-1.15.17-.31.39-.56.68-.75.29-.19.61-.33.98-.43.37-.1.76-.16,1.16-.2.48-.05.86-.1,1.15-.14.29-.05.5-.11.63-.2.13-.09.2-.22.2-.39v-.03c0-.34-.11-.6-.32-.78-.21-.18-.51-.28-.89-.28-.41,0-.73.09-.97.27-.24.18-.4.4-.48.67l-2.1-.17c.11-.5.32-.93.63-1.29.31-.37.72-.65,1.21-.84.5-.2,1.07-.3,1.73-.3.45,0,.89.05,1.31.16.42.11.79.27,1.11.5.33.22.58.51.77.86.19.35.28.77.28,1.25v5.52h-2.15v-1.13h-.06c-.13.26-.31.48-.53.68-.22.19-.48.34-.79.45-.31.11-.67.16-1.07.16ZM48.1,23.59c.33,0,.63-.07.88-.2.26-.13.46-.32.6-.54.15-.23.22-.48.22-.77v-.87c-.07.05-.17.09-.29.13-.12.04-.26.07-.41.1-.15.03-.31.06-.46.08-.15.02-.29.04-.42.06-.27.04-.5.1-.7.19-.2.09-.35.2-.46.35-.11.14-.17.32-.17.53,0,.31.11.55.34.71.23.16.51.24.86.24ZM53.81,25v-8.18h2.2v1.43h.09c.15-.51.4-.89.75-1.15.35-.26.76-.39,1.21-.39.11,0,.24,0,.37.02s.25.03.35.06v2.01c-.11-.03-.25-.06-.44-.09-.19-.02-.36-.04-.52-.04-.33,0-.63.07-.89.22-.26.14-.47.34-.62.6-.15.26-.22.55-.22.88v4.63h-2.27ZM59.95,25v-8.18h2.27v8.18h-2.27ZM61.09,15.76c-.34,0-.63-.11-.87-.34-.24-.23-.36-.5-.36-.82s.12-.58.36-.8c.24-.23.53-.34.87-.34s.62.11.86.34c.24.22.36.49.36.8s-.12.59-.36.82c-.24.22-.53.34-.86.34ZM67.77,25.16c-.84,0-1.57-.17-2.17-.51-.6-.34-1.07-.83-1.4-1.46-.33-.63-.49-1.38-.49-2.24s.16-1.58.49-2.22c.33-.64.79-1.13,1.38-1.49.6-.36,1.3-.53,2.1-.53.54,0,1.04.09,1.51.26.47.17.88.43,1.23.77.35.34.62.78.82,1.3.2.52.29,1.13.29,1.82v.62h-6.91v-1.41h4.77c0-.33-.07-.62-.21-.87s-.34-.45-.59-.59c-.25-.15-.54-.22-.87-.22s-.65.08-.92.24c-.26.16-.47.37-.62.63-.15.26-.23.56-.23.88v1.34c0,.4.07.75.22,1.05.15.29.37.52.64.68s.61.24.99.24c.25,0,.48-.04.69-.11.21-.07.39-.18.54-.32.15-.14.26-.32.34-.52l2.1.14c-.11.5-.32.94-.66,1.32-.33.37-.75.66-1.27.87-.51.21-1.11.31-1.78.31ZM80.41,16.82l-2.86,8.18h-2.56l-2.86-8.18h2.4l1.7,5.85h.09l1.69-5.85h2.4ZM85.04,25.16c-.84,0-1.57-.17-2.17-.51-.6-.34-1.07-.83-1.4-1.46-.33-.63-.49-1.38-.49-2.24s.16-1.58.49-2.22c.33-.64.79-1.13,1.38-1.49.6-.36,1.3-.53,2.1-.53.54,0,1.04.09,1.51.26.47.17.88.43,1.23.77.35.34.62.78.82,1.3.2.52.29,1.13.29,1.82v.62h-6.91v-1.41h4.77c0-.33-.07-.62-.21-.87s-.34-.45-.59-.59c-.25-.15-.54-.22-.87-.22s-.65.08-.92.24c-.26.16-.47.37-.62.63-.15.26-.23.56-.23.88v1.34c0,.4.07.75.22,1.05.15.29.37.52.64.68s.61.24.99.24c.25,0,.48-.04.69-.11.21-.07.39-.18.54-.32.15-.14.26-.32.34-.52l2.1.14c-.11.5-.32.94-.66,1.32-.33.37-.75.66-1.27.87-.51.21-1.11.31-1.78.31ZM92.54,20.27v4.73h-2.27v-8.18h2.16v1.44h.1c.18-.48.48-.85.91-1.13.43-.28.94-.42,1.55-.42.57,0,1.06.12,1.49.37s.75.6.99,1.07c.23.46.35,1,.35,1.64v5.21h-2.27v-4.8c0-.5-.12-.89-.38-1.17-.26-.28-.62-.43-1.07-.43-.31,0-.58.07-.81.2-.23.13-.41.32-.54.58-.13.25-.19.55-.2.9Z"/>
</svg>