<?xml version="1.0" encoding="UTF-8"?>
<svg id="Laag_1" data-name="Laag 1" xmlns="http://www.w3.org/2000/svg" xmlns:xlink="http://www.w3.org/1999/xlink" viewBox="0 0 47.18 47.18">
  <defs>
    <style>
      .cls-1 {
        fill: none;
      }

      .cls-2 {
        fill: #111b21;
        fill-rule: evenodd;
      }

      .cls-3 {
        fill: #aef359;
      }

      .cls-4 {
        clip-path: url(#clippath);
      }
    </style>
    <clipPath id="clippath">
      <rect class="cls-1" x="8.47" y="8.47" width="31.45" height="31.45"/>
    </clipPath>
  </defs>
  <rect class="cls-3" width="47.18" height="47.18" rx="5" ry="5"/>
  <g class="cls-4">
    <path class="cls-2" d="M35.34,13.04c-2.96-2.94-6.89-4.57-11.08-4.57-8.63,0-15.66,6.99-15.66,15.57,0,2.75.72,5.42,2.09,7.79l-2.22,8.07,8.3-2.17c2.29,1.24,4.86,1.89,7.48,1.9h0c8.63,0,15.66-6.99,15.66-15.57,0-4.16-1.63-8.07-4.58-11.02h0ZM24.26,37h0c-2.34,0-4.63-.63-6.63-1.8l-.48-.28-4.93,1.29,1.31-4.78-.31-.49c-1.3-2.06-1.99-4.44-1.99-6.89,0-7.14,5.84-12.94,13.02-12.94,3.48,0,6.74,1.35,9.2,3.8,2.46,2.45,3.81,5.7,3.81,9.16,0,7.14-5.84,12.94-13.02,12.94h0ZM31.4,27.3c-.39-.19-2.32-1.14-2.67-1.27-.36-.13-.62-.19-.88.19-.26.39-1.01,1.27-1.24,1.53-.23.26-.46.29-.85.1-.39-.19-1.65-.61-3.15-1.93-1.16-1.03-1.95-2.31-2.18-2.7-.23-.39-.02-.6.17-.79.18-.17.39-.45.59-.68.2-.23.26-.39.39-.65.13-.26.07-.49-.03-.68-.1-.19-.88-2.11-1.21-2.89-.32-.76-.64-.66-.88-.67-.23-.01-.49-.01-.75-.01s-.68.1-1.04.49c-.36.39-1.37,1.33-1.37,3.25s1.4,3.77,1.6,4.03c.2.26,2.76,4.19,6.68,5.88.93.4,1.66.64,2.23.82.94.3,1.79.25,2.46.15.75-.11,2.32-.94,2.64-1.85.33-.91.33-1.69.23-1.85-.1-.16-.36-.26-.75-.45h0Z"/>
  </g>
</svg>